<?xml version="1.0" ?><!DOCTYPE svg  PUBLIC '-//W3C//DTD SVG 1.1//EN'  'http://www.w3.org/Graphics/SVG/1.1/DTD/svg11.dtd'><svg height="512px" style="enable-background:new 0 0 512 512;" version="1.1" viewBox="0 0 512 512" width="512px" xml:space="preserve" xmlns="http://www.w3.org/2000/svg" xmlns:xlink="http://www.w3.org/1999/xlink"><g id="_x34_09_x2C__Cassette_x2C__demo_x2C__record_x2C__tape_x2C__record"><g><path d="M145.346,211.975h236.245c14.754,0,28.167,6.031,37.899,15.746l0.179,0.224    c9.605,9.687,15.564,23.03,15.564,37.688c0,14.739-6.029,28.167-15.743,37.884c-9.732,9.714-23.146,15.771-37.899,15.771H145.346    c-14.754,0-28.182-6.058-37.896-15.771l-0.182-0.197c-9.602-9.714-15.575-23.031-15.575-37.687    c0-14.739,6.043-28.168,15.757-37.884C117.164,218.006,130.591,211.975,145.346,211.975 M85.354,168.482    c2.709,0,5.194,1.115,6.966,2.902c1.772,1.76,2.889,4.243,2.889,6.951s-1.116,5.193-2.889,6.979    c-1.772,1.787-4.257,2.904-6.966,2.904s-5.18-1.117-6.966-2.904c-1.8-1.758-2.902-4.242-2.902-6.979    c0-2.708,1.102-5.191,2.888-6.951l0.253-0.252C80.385,169.515,82.757,168.482,85.354,168.482z M85.354,340.252    c2.709,0,5.194,1.117,6.966,2.877c1.772,1.786,2.889,4.242,2.889,6.979c0,2.735-1.116,5.192-2.889,6.979    c-1.772,1.786-4.257,2.875-6.966,2.875s-5.18-1.089-6.966-2.875c-1.8-1.787-2.902-4.244-2.902-6.979    c0-2.736,1.102-5.192,2.888-6.979l0.253-0.225C80.385,341.258,82.757,340.252,85.354,340.252z M441.989,168.482    c2.71,0,5.181,1.115,6.967,2.902c1.8,1.76,2.902,4.243,2.902,6.951c0,2.736-1.103,5.221-2.889,6.979    c-1.772,1.787-4.243,2.904-6.98,2.904c-2.724,0-5.193-1.117-6.966-2.904l-0.235-0.25c-1.649-1.76-2.653-4.133-2.653-6.729    c0-2.708,1.102-5.191,2.889-6.951C436.796,169.598,439.266,168.482,441.989,168.482z M441.989,340.252    c2.71,0,5.181,1.117,6.967,2.877c1.8,1.786,2.902,4.242,2.902,6.979c0,2.735-1.103,5.192-2.889,6.979l-0.253,0.224    c-1.758,1.646-4.13,2.651-6.728,2.651c-2.724,0-5.193-1.089-6.966-2.875c-1.787-1.787-2.889-4.244-2.889-6.979    c0-2.736,1.102-5.192,2.889-6.979C436.796,341.369,439.266,340.252,441.989,340.252z M182.143,245.057    c-5.278-5.275-12.55-8.543-20.59-8.543c-7.956,0-15.171,3.211-20.422,8.375l-0.151,0.168c-5.264,5.249-8.531,12.535-8.531,20.575    c0,7.956,3.211,15.158,8.363,20.407l0.168,0.167c5.261,5.249,12.546,8.515,20.573,8.515s15.312-3.266,20.576-8.515    c5.261-5.276,8.528-12.534,8.528-20.574S187.389,250.306,182.143,245.057z M385.961,245.057    c-5.262-5.275-12.547-8.543-20.573-8.543c-7.956,0-15.175,3.211-20.422,8.375l-0.154,0.168    c-5.274,5.249-8.528,12.535-8.528,20.575c0,7.956,3.197,15.158,8.346,20.407l0.183,0.167c5.261,5.249,12.536,8.515,20.576,8.515    c8.026,0,15.298-3.266,20.573-8.515c5.264-5.276,8.514-12.534,8.514-20.574S391.225,250.306,385.961,245.057z M176.724,83.307    c3.211,0,6.142,1.313,8.265,3.435l0.112,0.111c2.049,2.122,3.32,4.997,3.32,8.151c0,3.211-1.313,6.143-3.418,8.264l-0.126,0.112    c-2.12,2.065-4.983,3.321-8.152,3.321c-3.208,0-6.142-1.312-8.262-3.406l-0.112-0.139c-2.067-2.121-3.337-4.969-3.337-8.152    c0-3.21,1.327-6.141,3.436-8.263l0.112-0.111C170.681,84.563,173.572,83.307,176.724,83.307z M350.199,83.307    c3.225,0,6.141,1.313,8.264,3.435l0.113,0.111c2.063,2.122,3.334,4.997,3.334,8.151c0,3.211-1.313,6.143-3.433,8.264l-0.112,0.112    c-2.123,2.065-4.983,3.321-8.166,3.321c-3.209,0-6.143-1.312-8.262-3.406l-0.113-0.139c-2.053-2.121-3.322-4.969-3.322-8.152    c0-3.21,1.313-6.141,3.421-8.263l0.126-0.111C344.169,84.563,347.043,83.307,350.199,83.307z M210.184,108.404    c2.723,0,5.18,1.117,6.966,2.875c1.8,1.787,2.902,4.272,2.902,6.98c0,2.734-1.102,5.191-2.888,6.979    c-1.772,1.787-4.243,2.904-6.98,2.904c-2.724,0-5.194-1.117-6.966-2.904l-0.221-0.252c-1.649-1.758-2.667-4.131-2.667-6.727    c0-2.708,1.102-5.193,2.889-6.98C204.989,109.521,207.46,108.404,210.184,108.404z M316.742,108.404    c2.706,0,5.177,1.117,6.963,2.875c1.787,1.787,2.906,4.272,2.906,6.98c0,2.734-1.119,5.191-2.893,6.979    c-1.785,1.787-4.256,2.904-6.977,2.904c-2.723,0-5.193-1.117-6.98-2.904l-0.225-0.252c-1.646-1.758-2.664-4.131-2.664-6.727    c0-2.708,1.117-5.193,2.889-6.98C311.549,109.521,314.02,108.404,316.742,108.404z M104.449,79.314l51.393,50.223H371.08    l51.396-50.223H104.449z M59.307,152.346h408.31c1.898,0,3.436,1.535,3.436,3.434v219.704c0,1.899-1.537,3.435-3.436,3.435H59.307    c-1.899,0-3.433-1.535-3.433-3.435V155.779C55.874,153.881,57.408,152.346,59.307,152.346z M432.275,79.314L374.85,135.4    c-0.656,0.67-1.52,0.977-2.387,0.977h-218c-1.021,0-1.941-0.418-2.555-1.145L94.651,79.314H50.066    c-2.513,0-4.801,1.034-6.447,2.682c-1.674,1.646-2.695,3.936-2.695,6.448v294.438c0,2.512,1.035,4.802,2.695,6.448    c1.646,1.646,3.934,2.681,6.447,2.681H476.87c2.499,0,4.791-1.034,6.451-2.681c1.646-1.646,2.678-3.937,2.678-6.448V88.444    c0-2.485-1.032-4.774-2.678-6.448c-1.66-1.647-3.952-2.682-6.451-2.682H432.275z M161.552,229.676    c9.925,0,18.913,4.02,25.419,10.523c6.517,6.505,10.539,15.494,10.539,25.433c0,9.911-4.022,18.927-10.525,25.432    c-6.507,6.505-15.509,10.524-25.434,10.524s-18.927-4.02-25.433-10.524l-0.193-0.223c-6.38-6.478-10.328-15.411-10.328-25.209    c0-9.938,4.032-18.928,10.521-25.433l0.21-0.195C142.833,233.611,151.74,229.676,161.552,229.676z M365.388,229.676    c9.907,0,18.898,4.02,25.401,10.523c6.521,6.505,10.554,15.494,10.554,25.433c0,9.911-4.032,18.927-10.539,25.432    c-6.503,6.505-15.495,10.524-25.416,10.524c-9.938,0-18.931-4.02-25.434-10.524l-0.196-0.223    c-6.391-6.478-10.343-15.411-10.343-25.209c0-9.938,4.036-18.928,10.539-25.433l0.211-0.195    C346.654,233.611,355.561,229.676,365.388,229.676z M381.591,218.844H145.346c-12.87,0-24.567,5.275-33.039,13.734    c-8.486,8.487-13.75,20.185-13.75,33.054c0,12.785,5.208,24.427,13.582,32.886l0.168,0.14    c8.472,8.487,20.169,13.763,33.039,13.763h236.245c12.855,0,24.553-5.275,33.042-13.763c8.472-8.459,13.732-20.156,13.732-33.025    c0-12.786-5.19-24.428-13.567-32.886l-0.165-0.168C406.144,224.119,394.446,218.844,381.591,218.844z M180.16,91.571    c-0.895-0.866-2.095-1.396-3.436-1.396c-1.337,0-2.552,0.529-3.433,1.396c-0.867,0.894-1.411,2.093-1.411,3.433    c0,1.341,0.544,2.569,1.411,3.435c0.881,0.864,2.095,1.424,3.433,1.424c1.34,0,2.541-0.56,3.421-1.424    c0.877-0.865,1.411-2.094,1.411-3.435C181.557,93.664,181.023,92.465,180.16,91.571z M353.648,91.571    c-0.895-0.866-2.109-1.396-3.449-1.396c-1.342,0-2.541,0.529-3.419,1.396c-0.881,0.894-1.411,2.093-1.411,3.433    c0,1.341,0.53,2.569,1.396,3.435c0.893,0.864,2.092,1.424,3.434,1.424c1.34,0,2.555-0.56,3.436-1.424    c0.877-0.865,1.406-2.094,1.406-3.435C355.041,93.664,354.512,92.465,353.648,91.571z M212.321,116.138    c-0.534-0.53-1.298-0.865-2.137-0.865c-0.825,0-1.576,0.335-2.109,0.865c-0.544,0.558-0.877,1.313-0.877,2.122    c0,0.781,0.277,1.479,0.741,2.01l0.137,0.111c0.534,0.531,1.285,0.893,2.109,0.893c0.839,0,1.59-0.361,2.137-0.893    c0.53-0.53,0.863-1.283,0.863-2.121C213.184,117.45,212.851,116.695,212.321,116.138z M318.862,116.138    c-0.53-0.53-1.299-0.865-2.12-0.865c-0.824,0-1.579,0.335-2.123,0.865c-0.544,0.558-0.877,1.313-0.877,2.122    c0,0.781,0.291,1.479,0.75,2.01l0.127,0.111c0.544,0.531,1.299,0.893,2.123,0.893c0.821,0,1.576-0.361,2.12-0.893    c0.544-0.53,0.881-1.283,0.881-2.121C319.743,117.45,319.406,116.695,318.862,116.138z M87.478,176.215    c-0.548-0.531-1.299-0.865-2.124-0.865c-0.783,0-1.481,0.278-2.011,0.753l-0.112,0.112c-0.544,0.559-0.892,1.313-0.892,2.121    c0,0.838,0.348,1.592,0.892,2.122c0.533,0.558,1.284,0.894,2.123,0.894c0.825,0,1.576-0.336,2.124-0.894    c0.53-0.53,0.863-1.284,0.863-2.122C88.341,177.527,88.007,176.773,87.478,176.215z M87.478,347.986    c-0.548-0.53-1.299-0.865-2.124-0.865c-0.783,0-1.481,0.278-2.011,0.754l-0.112,0.111c-0.544,0.529-0.892,1.283-0.892,2.121    s0.348,1.592,0.892,2.121c0.533,0.531,1.284,0.866,2.123,0.866c0.825,0,1.576-0.335,2.124-0.866    c0.53-0.529,0.863-1.283,0.863-2.121S88.007,348.516,87.478,347.986z M444.112,176.215c-0.533-0.531-1.284-0.865-2.123-0.865    c-0.824,0-1.575,0.334-2.123,0.865c-0.53,0.559-0.877,1.313-0.877,2.121c0,0.781,0.291,1.48,0.754,2.01l0.123,0.112    c0.548,0.558,1.299,0.894,2.123,0.894c0.825,0,1.59-0.336,2.123-0.894c0.544-0.53,0.878-1.284,0.878-2.122    C444.99,177.527,444.656,176.773,444.112,176.215z M444.112,347.986c-0.533-0.53-1.284-0.865-2.123-0.865    c-0.824,0-1.575,0.335-2.123,0.865c-0.53,0.529-0.877,1.283-0.877,2.121s0.347,1.592,0.877,2.121    c0.548,0.531,1.299,0.866,2.123,0.866c0.769,0,1.481-0.28,2.011-0.754l0.112-0.112c0.544-0.529,0.878-1.283,0.878-2.121    S444.656,348.516,444.112,347.986z M63.3,417.471c-1.898,0-3.436-1.563-3.436-3.435c0-1.897,1.537-3.433,3.436-3.433h279.823    c1.898,0,3.433,1.535,3.433,3.433c0,1.871-1.534,3.435-3.433,3.435H63.3z M227.155,432.685c-1.884,0-3.432-1.535-3.432-3.433    c0-1.898,1.548-3.435,3.432-3.435h193.644c1.885,0,3.422,1.536,3.422,3.435c0,1.897-1.537,3.433-3.422,3.433H227.155z     M440.621,432.685c-1.898,0-3.433-1.535-3.433-3.433c0-1.898,1.534-3.435,3.433-3.435h24.205c1.885,0,3.432,1.536,3.432,3.435    c0,1.897-1.547,3.433-3.432,3.433H440.621z M29.437,432.21c-1.898,0-3.436-1.535-3.436-3.434c0-1.897,1.537-3.434,3.436-3.434    h114.6c1.881,0,3.432,1.536,3.432,3.434c0,1.898-1.551,3.434-3.432,3.434H29.437z M464.184,159.213H62.742v212.838h401.441    V159.213z" style="fill-rule:evenodd;clip-rule:evenodd;"/></g></g><g id="Layer_1"/></svg>