<svg xmlns="http://www.w3.org/2000/svg" xml:space="preserve" width="457.728" height="321.536" style="max-height:500px" viewBox="34.816 74.752 457.728 321.536"><path d="M145.346 211.975h236.245c14.754 0 28.167 6.031 37.899 15.746l.179.224c9.605 9.687 15.564 23.03 15.564 37.688 0 14.739-6.029 28.167-15.743 37.884-9.732 9.714-23.146 15.771-37.899 15.771H145.346c-14.754 0-28.182-6.058-37.896-15.771l-.182-.197c-9.602-9.714-15.575-23.031-15.575-37.687 0-14.739 6.043-28.168 15.757-37.884 9.714-9.743 23.141-15.774 37.896-15.774m-59.992-43.493a9.818 9.818 0 0 1 6.966 2.902c1.772 1.76 2.889 4.243 2.889 6.951s-1.116 5.193-2.889 6.979c-1.772 1.787-4.257 2.904-6.966 2.904s-5.18-1.117-6.966-2.904c-1.8-1.758-2.902-4.242-2.902-6.979a9.756 9.756 0 0 1 2.888-6.951l.253-.252c1.758-1.617 4.13-2.65 6.727-2.65zm0 171.77a9.91 9.91 0 0 1 6.966 2.877 9.876 9.876 0 0 1 2.889 6.979 9.877 9.877 0 0 1-2.889 6.979 9.8 9.8 0 0 1-6.966 2.875 9.824 9.824 0 0 1-6.966-2.875 9.776 9.776 0 0 1-2.902-6.979 9.82 9.82 0 0 1 2.888-6.979l.253-.225a9.819 9.819 0 0 1 6.727-2.652zm356.635-171.77a9.844 9.844 0 0 1 6.967 2.902 9.71 9.71 0 0 1 2.902 6.951c0 2.736-1.103 5.221-2.889 6.979a9.804 9.804 0 0 1-6.98 2.904 9.796 9.796 0 0 1-6.966-2.904l-.235-.25a9.817 9.817 0 0 1-2.653-6.729 9.753 9.753 0 0 1 2.889-6.951 9.796 9.796 0 0 1 6.965-2.902zm0 171.77c2.71 0 5.181 1.117 6.967 2.877a9.77 9.77 0 0 1 2.902 6.979 9.823 9.823 0 0 1-2.889 6.979l-.253.224a9.819 9.819 0 0 1-6.728 2.651 9.775 9.775 0 0 1-6.966-2.875 9.818 9.818 0 0 1-2.889-6.979 9.817 9.817 0 0 1 2.889-6.979 9.891 9.891 0 0 1 6.967-2.877zm-259.846-95.195c-5.278-5.275-12.55-8.543-20.59-8.543-7.956 0-15.171 3.211-20.422 8.375l-.151.168a28.983 28.983 0 0 0-8.531 20.575c0 7.956 3.211 15.158 8.363 20.407l.168.167c5.261 5.249 12.546 8.515 20.573 8.515s15.312-3.266 20.576-8.515c5.261-5.276 8.528-12.534 8.528-20.574s-3.268-15.326-8.514-20.575zm203.818 0c-5.262-5.275-12.547-8.543-20.573-8.543-7.956 0-15.175 3.211-20.422 8.375l-.154.168a28.938 28.938 0 0 0-8.528 20.575c0 7.956 3.197 15.158 8.346 20.407l.183.167c5.261 5.249 12.536 8.515 20.576 8.515 8.026 0 15.298-3.266 20.573-8.515 5.264-5.276 8.514-12.534 8.514-20.574s-3.251-15.326-8.515-20.575zM176.724 83.307c3.211 0 6.142 1.313 8.265 3.435l.112.111c2.049 2.122 3.32 4.997 3.32 8.151 0 3.211-1.313 6.143-3.418 8.264l-.126.112a11.62 11.62 0 0 1-8.152 3.321 11.762 11.762 0 0 1-8.262-3.406l-.112-.139c-2.067-2.121-3.337-4.969-3.337-8.152 0-3.21 1.327-6.141 3.436-8.263l.112-.111a11.666 11.666 0 0 1 8.162-3.323zm173.475 0a11.65 11.65 0 0 1 8.264 3.435l.113.111c2.063 2.122 3.334 4.997 3.334 8.151 0 3.211-1.313 6.143-3.433 8.264l-.112.112a11.634 11.634 0 0 1-8.166 3.321 11.759 11.759 0 0 1-8.262-3.406l-.113-.139c-2.053-2.121-3.322-4.969-3.322-8.152 0-3.21 1.313-6.141 3.421-8.263l.126-.111a11.631 11.631 0 0 1 8.15-3.323zm-140.015 25.097c2.723 0 5.18 1.117 6.966 2.875a9.825 9.825 0 0 1 2.902 6.98 9.825 9.825 0 0 1-2.888 6.979 9.804 9.804 0 0 1-6.98 2.904 9.794 9.794 0 0 1-6.966-2.904l-.221-.252a9.82 9.82 0 0 1-2.667-6.727 9.868 9.868 0 0 1 2.889-6.98 9.884 9.884 0 0 1 6.965-2.875zm106.558 0c2.706 0 5.177 1.117 6.963 2.875a9.883 9.883 0 0 1 2.906 6.98c0 2.734-1.119 5.191-2.893 6.979a9.848 9.848 0 0 1-6.977 2.904 9.855 9.855 0 0 1-6.98-2.904l-.225-.252a9.831 9.831 0 0 1-2.664-6.727 9.932 9.932 0 0 1 2.889-6.98 9.958 9.958 0 0 1 6.981-2.875zm-212.293-29.09 51.393 50.223H371.08l51.396-50.223H104.449zm-45.142 73.032h408.31a3.433 3.433 0 0 1 3.436 3.434v219.704a3.433 3.433 0 0 1-3.436 3.435H59.307a3.43 3.43 0 0 1-3.433-3.435V155.779a3.43 3.43 0 0 1 3.433-3.433zm372.968-73.032L374.85 135.4c-.656.67-1.52.977-2.387.977h-218c-1.021 0-1.941-.418-2.555-1.145L94.651 79.314H50.066a9.108 9.108 0 0 0-6.447 2.682 9.017 9.017 0 0 0-2.695 6.448v294.438a9.074 9.074 0 0 0 2.695 6.448 9.116 9.116 0 0 0 6.447 2.681H476.87c2.499 0 4.791-1.034 6.451-2.681a9.12 9.12 0 0 0 2.678-6.448V88.444c0-2.485-1.032-4.774-2.678-6.448-1.66-1.647-3.952-2.682-6.451-2.682h-44.595zM161.552 229.676c9.925 0 18.913 4.02 25.419 10.523 6.517 6.505 10.539 15.494 10.539 25.433a35.9 35.9 0 0 1-10.525 25.432c-6.507 6.505-15.509 10.524-25.434 10.524s-18.927-4.02-25.433-10.524l-.193-.223a35.872 35.872 0 0 1-10.328-25.209c0-9.938 4.032-18.928 10.521-25.433l.21-.195c6.505-6.393 15.412-10.328 25.224-10.328zm203.836 0c9.907 0 18.898 4.02 25.401 10.523 6.521 6.505 10.554 15.494 10.554 25.433 0 9.911-4.032 18.927-10.539 25.432-6.503 6.505-15.495 10.524-25.416 10.524a35.848 35.848 0 0 1-25.434-10.524l-.196-.223a35.838 35.838 0 0 1-10.343-25.209c0-9.938 4.036-18.928 10.539-25.433l.211-.195a35.818 35.818 0 0 1 25.223-10.328zm16.203-10.832H145.346c-12.87 0-24.567 5.275-33.039 13.734-8.486 8.487-13.75 20.185-13.75 33.054 0 12.785 5.208 24.427 13.582 32.886l.168.14c8.472 8.487 20.169 13.763 33.039 13.763h236.245c12.855 0 24.553-5.275 33.042-13.763 8.472-8.459 13.732-20.156 13.732-33.025 0-12.786-5.19-24.428-13.567-32.886l-.165-.168c-8.489-8.46-20.187-13.735-33.042-13.735zM180.16 91.571a4.906 4.906 0 0 0-3.436-1.396 4.877 4.877 0 0 0-3.433 1.396c-.867.894-1.411 2.093-1.411 3.433a4.86 4.86 0 0 0 1.411 3.435 4.912 4.912 0 0 0 3.433 1.424c1.34 0 2.541-.56 3.421-1.424a4.817 4.817 0 0 0 1.411-3.435 4.908 4.908 0 0 0-1.396-3.433zm173.488 0a4.94 4.94 0 0 0-3.449-1.396 4.83 4.83 0 0 0-3.419 1.396 4.848 4.848 0 0 0-1.411 3.433c0 1.341.53 2.569 1.396 3.435.893.864 2.092 1.424 3.434 1.424 1.34 0 2.555-.56 3.436-1.424.877-.865 1.406-2.094 1.406-3.435 0-1.34-.529-2.539-1.393-3.433zm-141.327 24.567a3.036 3.036 0 0 0-2.137-.865c-.825 0-1.576.335-2.109.865a3.048 3.048 0 0 0-.136 4.132l.137.111c.534.531 1.285.893 2.109.893.839 0 1.59-.361 2.137-.893.53-.53.863-1.283.863-2.121a3.099 3.099 0 0 0-.864-2.122zm106.541 0a3.02 3.02 0 0 0-2.12-.865c-.824 0-1.579.335-2.123.865a3.048 3.048 0 0 0-.877 2.122c0 .781.291 1.479.75 2.01l.127.111c.544.531 1.299.893 2.123.893.821 0 1.576-.361 2.12-.893.544-.53.881-1.283.881-2.121 0-.81-.337-1.565-.881-2.122zM87.478 176.215a3.051 3.051 0 0 0-2.124-.865 2.98 2.98 0 0 0-2.011.753l-.112.112c-.544.559-.892 1.313-.892 2.121 0 .838.348 1.592.892 2.122a2.912 2.912 0 0 0 2.123.894c.825 0 1.576-.336 2.124-.894.53-.53.863-1.284.863-2.122a3.1 3.1 0 0 0-.863-2.121zm0 171.771a3.056 3.056 0 0 0-2.124-.865c-.783 0-1.481.278-2.011.754l-.112.111c-.544.529-.892 1.283-.892 2.121s.348 1.592.892 2.121a2.998 2.998 0 0 0 2.123.866c.825 0 1.576-.335 2.124-.866.53-.529.863-1.283.863-2.121s-.334-1.591-.863-2.121zm356.634-171.771a2.997 2.997 0 0 0-2.123-.865 3.05 3.05 0 0 0-2.123.865c-.53.559-.877 1.313-.877 2.121 0 .781.291 1.48.754 2.01l.123.112a2.963 2.963 0 0 0 2.123.894c.825 0 1.59-.336 2.123-.894.544-.53.878-1.284.878-2.122 0-.809-.334-1.563-.878-2.121zm0 171.771a3.001 3.001 0 0 0-2.123-.865c-.824 0-1.575.335-2.123.865a3 3 0 0 0 0 4.242 3.051 3.051 0 0 0 2.123.866c.769 0 1.481-.28 2.011-.754l.112-.112c.544-.529.878-1.283.878-2.121s-.334-1.591-.878-2.121zM63.3 417.471c-1.898 0-3.436-1.563-3.436-3.435a3.433 3.433 0 0 1 3.436-3.433h279.823a3.43 3.43 0 0 1 3.433 3.433c0 1.871-1.534 3.435-3.433 3.435H63.3zm163.855 15.214a3.439 3.439 0 0 1-3.432-3.433 3.44 3.44 0 0 1 3.432-3.435h193.644a3.43 3.43 0 0 1 3.422 3.435 3.43 3.43 0 0 1-3.422 3.433H227.155zm213.466 0a3.43 3.43 0 0 1-3.433-3.433 3.432 3.432 0 0 1 3.433-3.435h24.205a3.439 3.439 0 0 1 3.432 3.435 3.439 3.439 0 0 1-3.432 3.433h-24.205zm-411.184-.475a3.433 3.433 0 1 1 0-6.868h114.6a3.441 3.441 0 0 1 3.432 3.434 3.441 3.441 0 0 1-3.432 3.434h-114.6zm434.747-272.997H62.742v212.838h401.441V159.213z" style="fill-rule:evenodd;clip-rule:evenodd"/></svg>